<svg id="svg" xmlns="http://www.w3.org/2000/svg" xmlns:xlink="http://www.w3.org/1999/xlink" width="400" height="400"
  viewBox="0, 0, 400,400">
  <g id="svgg">
    <path id="path0"
      d="M83.001 12.504 C 74.445 14.524,70.287 17.456,66.277 24.299 L 62.500 30.743 62.500 80.754 C 62.500 135.671,62.546 135.938,72.090 135.938 C 82.042 135.937,81.954 136.377,82.813 82.550 L 83.594 33.594 231.250 33.594 L 378.906 33.594 379.306 159.204 C 379.598 250.705,379.227 285.390,377.943 286.938 C 376.602 288.554,370.642 289.062,353.047 289.063 C 324.593 289.063,323.437 289.821,323.438 308.492 C 323.438 323.489,323.519 323.437,299.799 323.437 C 275.244 323.438,275.000 323.275,275.000 306.920 C 275.000 289.627,274.138 289.056,248.047 289.086 C 226.223 289.112,224.967 289.389,222.109 294.819 C 217.149 304.242,223.930 309.375,241.335 309.375 L 254.688 309.375 254.687 315.675 C 254.687 337.084,267.289 344.300,303.247 343.485 C 333.620 342.797,343.750 336.068,343.750 316.584 L 343.750 309.375 361.473 309.375 C 383.197 309.375,390.564 306.414,396.428 295.326 L 400.052 288.472 399.636 158.413 C 399.223 29.818,399.182 28.304,395.997 24.039 C 391.344 17.807,385.781 14.056,378.785 12.434 C 371.248 10.685,90.421 10.752,83.001 12.504 M126.276 68.309 C 117.345 73.849,113.268 119.477,120.945 127.961 C 131.016 139.089,137.500 130.385,137.500 105.736 L 137.500 85.938 230.469 85.938 L 323.438 85.938 323.438 160.938 L 323.438 235.938 278.367 235.938 C 228.987 235.937,228.090 236.107,228.149 245.436 C 228.214 255.662,231.141 256.250,281.979 256.250 C 350.613 256.250,343.750 266.968,343.750 159.789 L 343.750 76.250 338.438 70.938 L 333.125 65.625 231.797 65.667 C 140.042 65.704,130.073 65.954,126.276 68.309 M254.677 121.681 C 213.570 135.141,221.155 193.885,263.979 193.716 C 300.922 193.570,314.126 145.615,282.591 126.118 C 274.943 121.390,261.899 119.317,254.677 121.681 M269.279 142.092 C 285.733 148.347,281.932 173.438,264.530 173.438 C 247.462 173.438,241.245 150.858,256.250 143.362 C 262.540 140.220,263.985 140.079,269.279 142.092 M95.945 145.498 C 80.868 162.266,52.566 174.096,22.012 176.402 C -1.795 178.199,-0.544 175.385,0.410 225.000 C 2.056 310.649,21.324 349.500,75.781 376.976 C 103.313 390.867,105.539 390.820,134.106 375.748 C 188.978 346.797,209.269 301.175,207.555 210.599 C 206.908 176.385,208.029 178.074,184.845 176.387 C 157.413 174.390,135.049 165.731,116.670 149.991 C 106.500 141.280,100.841 140.053,95.945 145.498 M129.059 182.545 C 142.428 189.224,156.281 193.434,172.656 195.794 L 186.719 197.822 187.195 218.833 C 188.900 294.037,169.984 334.837,122.191 359.039 C 102.702 368.908,105.206 368.880,86.470 359.445 C 37.522 334.796,20.312 299.085,20.313 222.163 L 20.313 197.327 30.559 196.370 C 52.997 194.275,77.296 185.265,95.313 172.360 L 103.906 166.204 111.719 171.995 C 116.016 175.180,123.819 179.928,129.059 182.545 M125.510 238.456 C 121.362 241.560,112.266 249.709,105.295 256.565 L 92.622 269.031 84.201 262.647 C 74.840 255.550,67.829 254.350,63.523 259.107 C 58.562 264.590,60.363 268.301,75.061 282.873 C 93.691 301.344,93.791 301.345,108.237 283.253 C 115.941 273.604,123.150 266.784,143.359 250.027 C 156.503 239.128,139.415 228.051,125.510 238.456 "
      stroke="none" fill="#000000" fill-rule="evenodd"></path>
  </g>
</svg>